<?xml version="1.0" encoding="utf-8"?>
<!-- Generator: Adobe Illustrator 15.0.0, SVG Export Plug-In . SVG Version: 6.00 Build 0)  -->
<!DOCTYPE svg PUBLIC "-//W3C//DTD SVG 1.1//EN" "http://www.w3.org/Graphics/SVG/1.1/DTD/svg11.dtd">
<svg version="1.1" id="图层_1" xmlns="http://www.w3.org/2000/svg" xmlns:xlink="http://www.w3.org/1999/xlink" x="0px" y="0px"
	 width="595.279px" height="841.89px" viewBox="0 0 595.279 841.89" enable-background="new 0 0 595.279 841.89"
	 xml:space="preserve">
<path fill="#EEEEEE" d="M4.032,83.653v1.769c8.125,0,14.733,6.608,14.733,14.732h1.769C20.534,91.055,13.131,83.653,4.032,83.653z"
	/>
<path fill="#EEEEEE" d="M4.051,89.686v1.179c5.121,0,9.289,4.167,9.289,9.289h1.18C14.519,94.382,9.823,89.686,4.051,89.686z"/>
<path fill="#EEEEEE" d="M5.873,95.679c-1.371,0-2.486,1.117-2.486,2.488s1.115,2.485,2.486,2.485s2.486-1.115,2.486-2.485
	C8.359,96.796,7.244,95.679,5.873,95.679z"/>
<g>
	<path fill="#888888" d="M10.817,240.18c-5.169,0-9.375,4.207-9.375,9.377c0,0.947,0.146,1.863,0.407,2.727l1.542-1.055
		c-0.122-0.539-0.19-1.098-0.19-1.672c0-4.201,3.417-7.617,7.617-7.617c4.2,0,7.617,3.416,7.617,7.617
		c0,4.199-3.417,7.617-7.617,7.617c-2.354,0-4.455-1.08-5.853-2.764l1.76-1.201c1.066,1.098,2.543,1.734,4.092,1.734
		c1.838,0,3.575-0.898,4.646-2.4c0.282-0.395,0.189-0.943-0.206-1.227c-0.396-0.281-0.943-0.189-1.227,0.207
		c-0.741,1.041-1.943,1.662-3.215,1.662s-2.475-0.621-3.215-1.662l-0.5-0.701l-4.564,3.119c1.576,2.965,4.694,4.99,8.28,4.99
		c5.169,0,9.375-4.205,9.375-9.375C20.192,244.386,15.986,240.18,10.817,240.18z"/>
	<rect x="6.718" y="245.647" fill="#888888" width="1.758" height="2.93"/>
	<rect x="13.158" y="245.647" fill="#888888" width="1.758" height="2.93"/>
</g>
<g>
	<path fill="#888888" d="M20.582,204.718h1.172c0-4.265-3.471-7.736-7.736-7.736v1.171
		C17.636,198.153,20.582,201.099,20.582,204.718z"/>
	<path fill="#888888" d="M17.456,204.718h1.172c0-2.543-2.068-4.613-4.611-4.613v1.173
		C15.914,201.278,17.456,202.821,17.456,204.718z"/>
	<path fill="#888888" d="M14.58,205.489c-1.275-0.925-2.304-2.171-2.972-3.606l-0.8-1.717l-0.795,1.721
		c-0.661,1.431-1.687,2.682-2.965,3.614c-1.291,0.941-2.753,1.517-4.347,1.716l-1.875,0.232l1.385,1.283
		c1.161,1.076,2.033,2.436,2.522,3.934c0.488,1.492,0.592,3.096,0.294,4.641l-0.354,1.844l1.643-0.908
		c2.761-1.527,6.271-1.523,9.028,0.014l1.659,0.928l-0.368-1.865c-0.233-1.176-0.238-2.365-0.017-3.537l0.111-0.588l-5.446-3.445
		c-0.41-0.26-0.954-0.137-1.212,0.273c-0.261,0.41-0.139,0.953,0.271,1.211l4.451,2.816c-0.088,0.658-0.116,1.32-0.085,1.98
		c-2.479-0.934-5.291-0.934-7.771-0.006c0.056-1.32-0.126-2.646-0.538-3.904c-0.413-1.264-1.055-2.443-1.885-3.479
		c1.278-0.355,2.49-0.938,3.563-1.721c1.076-0.785,2.001-1.76,2.729-2.867c0.73,1.108,1.658,2.08,2.733,2.859
		c1.077,0.779,2.288,1.359,3.565,1.709c-0.359,0.453-0.686,0.932-0.97,1.436c-0.24,0.422-0.093,0.959,0.329,1.199
		c0.423,0.24,0.959,0.092,1.198-0.332c0.467-0.822,1.058-1.568,1.751-2.219l1.38-1.289l-1.875-0.225
		C17.338,207,15.875,206.428,14.58,205.489z"/>
</g>
<g>
	<path fill="#888888" d="M3.725,158.669c1.039-0.242,1.712,0.349,2.695,1.348l0.563,0.563l0.829-0.827l-0.558-0.56
		c-0.909-0.924-2.04-2.072-3.795-1.665c-1.129,0.262-2,1.095-2.33,2.232c-0.332,1.146-0.041,2.325,0.779,3.158l0.075,0.076
		c1.118,1.133,1.766,1.904,1.331,3.047c-0.438,1.154-1.434,1.261-3.021,1.298L0,167.348l0.034,1.171l0.29-0.007
		c1.409-0.033,3.34-0.079,4.089-2.053c0.731-1.931-0.558-3.236-1.594-4.286l-0.074-0.077c-0.519-0.525-0.701-1.277-0.488-2.01
		C2.466,159.365,3.015,158.834,3.725,158.669z"/>
	<path fill="#888888" d="M21.859,164.694l-3.272-3.271c-1.325-1.325-3.088-2.053-4.963-2.053c-1.876,0-3.641,0.729-4.966,2.056
		c-0.141,0.142-0.269,0.288-0.394,0.438l4.362,4.362l0.829-0.828l-3.117-3.116c0.93-0.746,2.075-1.152,3.284-1.152
		c1.405,0,2.728,0.547,3.722,1.538l3.271,3.271c0.994,0.994,1.542,2.315,1.543,3.722c0.001,1.407-0.548,2.728-1.541,3.723
		c-0.991,0.992-2.31,1.537-3.71,1.537c-1.406,0-2.729-0.548-3.726-1.544l-3.271-3.271c-1.455-1.454-1.876-3.552-1.271-5.38
		l-1.349-1.349c-1.231,2.604-0.776,5.816,1.378,7.972l3.271,3.271c1.328,1.327,3.094,2.059,4.968,2.059
		c1.87,0,3.63-0.729,4.953-2.053c1.326-1.326,2.057-3.09,2.056-4.965C23.917,167.782,23.186,166.02,21.859,164.694z"/>
</g>
<g>
	<polygon fill="#EEEEEE" points="12.867,65.986 11.049,65.986 11.049,67.286 5.593,67.286 5.593,69.104 11.049,69.104 
		11.049,73.262 12.867,73.262 12.867,69.104 18.324,69.104 18.324,67.286 12.867,67.286 	"/>
	<polygon fill="#EEEEEE" points="20.709,56.262 17.937,56.262 11.96,61.461 5.979,56.262 3.209,56.262 10.467,62.572 5.593,62.572 
		5.593,64.39 18.324,64.39 18.324,62.572 13.454,62.572 	"/>
</g>
<g>
	<path fill="#EEEEEE" d="M1.622,29.28v0.862l10.338,9.605l10.335-9.605V29.28H1.622z M11.96,38.148l-7.652-7.109H19.61L11.96,38.148
		z"/>
	<path fill="#EEEEEE" d="M20.539,42.013c0,1.733-0.76,1.915-2.491,1.915H5.871c-1.731,0-2.491-0.182-2.491-1.915v-7.838
		l-1.758-1.633v9.471c0,3.674,2.979,3.674,4.249,3.674h12.176c1.271,0,4.249,0,4.249-3.674v-9.471l-1.757,1.634V42.013z"/>
</g>
<g>
	<path fill="#888888" d="M1.622,121.285v0.862l10.338,9.605l10.335-9.605v-0.862H1.622z M11.96,130.153l-7.652-7.109H19.61
		L11.96,130.153z"/>
	<path fill="#888888" d="M20.539,134.019c0,1.733-0.76,1.915-2.491,1.915H5.871c-1.731,0-2.491-0.182-2.491-1.915v-7.838
		l-1.758-1.633v9.471c0,3.674,2.979,3.674,4.249,3.674h12.176c1.271,0,4.249,0,4.249-3.674v-9.471l-1.757,1.634V134.019z"/>
</g>
<g>
	<g>
		<path fill="#EEEEEE" d="M17.525,10.5c0,1.445-2.694,2.552-5.898,1.282c-3.562-1.413-4.129-4.164-3.172-5.158
			c0.996-1.035,2.543,0.464,4.672,1.505C15.303,9.194,17.525,8.903,17.525,10.5z"/>
	</g>
	<g>
		<path fill="#EEEEEE" d="M17.525,7.974c-0.201,0-0.386-0.128-0.451-0.328c-0.195-0.6-0.823-2.065-2.453-2.716
			c-1.323-0.527-2.878-0.469-3.961,0.148c-0.228,0.129-0.517,0.05-0.646-0.177c-0.13-0.228-0.05-0.517,0.177-0.646
			c1.325-0.754,3.201-0.835,4.782-0.204c2.001,0.799,2.766,2.575,3.002,3.302c0.081,0.249-0.057,0.516-0.305,0.597
			C17.622,7.966,17.573,7.974,17.525,7.974z"/>
	</g>
	<g>
		<path fill="#EEEEEE" d="M6.303,18.606c-0.237,0-0.527-0.071-0.85-0.298C4.583,17.695,5,16.135,5.417,15.436
			c0.716-1.202,1.854-1.743,3.678-1.746c-2.377-1.293-4.451-3.911-4.057-6.717c0.513-3.647,4.461-5.986,9.183-5.439
			c1.162,0.134,1.527,0.109,1.778-0.125c0.214-0.2-0.025-0.713-0.027-0.718c-0.076-0.147-0.07-0.324,0.017-0.466
			C16.075,0.084,16.21,0.005,16.395,0c0.832,0.007,1.833,0.509,2.196,1.616c0.163,0.495,0.116,0.882,0.081,1.165
			c-0.042,0.342-0.045,0.37,0.221,0.541c1.899,1.221,3,3.679,2.674,5.979c-0.315,2.235-2.188,4.234-4.773,5.093
			c-0.249,0.083-0.516-0.052-0.599-0.3c-0.082-0.249,0.052-0.517,0.301-0.6c2.211-0.734,3.872-2.473,4.133-4.327
			c0.271-1.915-0.675-4.039-2.249-5.05c-0.765-0.491-0.696-1.046-0.646-1.452c0.029-0.236,0.056-0.46-0.041-0.754
			c-0.141-0.425-0.403-0.663-0.657-0.796c0.007,0.343-0.088,0.704-0.39,0.985c-0.594,0.554-1.354,0.511-2.535,0.373
			C9.914,1.99,6.416,3.979,5.976,7.105c-0.354,2.5,1.781,4.933,3.969,5.954c0.517,0.242,0.74,0.528,0.746,0.958
			c0.002,0.159-0.062,0.308-0.176,0.42c-0.256,0.248-0.688,0.228-1.108,0.208c-0.064-0.003-0.124-0.006-0.172-0.007
			c-1.59-0.023-2.447,0.348-3.004,1.282C5.917,16.446,5.783,17.379,6,17.531c0.104,0.074,0.252,0.154,0.368,0.116
			c0.062-0.019,0.276-0.128,0.486-0.717c0.013-0.035,0.024-0.077,0.038-0.122c0.082-0.271,0.204-0.681,0.56-0.861
			c0.132-0.067,0.347-0.128,0.622-0.031c0.247,0.087,0.376,0.357,0.29,0.604c-0.074,0.206-0.272,0.33-0.482,0.315
			c-0.03,0.075-0.063,0.183-0.082,0.244c-0.019,0.062-0.035,0.12-0.053,0.168c-0.255,0.714-0.622,1.152-1.092,1.302
			C6.557,18.583,6.438,18.606,6.303,18.606z"/>
	</g>
	<g>
		<path fill="#EEEEEE" d="M10.717,22c-0.533,0-0.973-0.215-1.194-0.594c-0.492-0.841,0.025-1.464,0.442-1.966
			c0.165-0.198,0.336-0.404,0.474-0.635c0.662-1.115,0.752-1.758,0.617-1.989c-0.092-0.155-0.352-0.16-0.426-0.158
			c-0.163,0.005-0.326,0.427-0.5,0.874c-0.116,0.303-0.25,0.646-0.432,1.002c-0.575,1.127-1.075,2.006-1.823,2.22
			c-0.352,0.101-0.716,0.04-1.081-0.18c-0.3-0.181-0.503-0.482-0.571-0.848c-0.102-0.533,0.085-1.141,0.523-1.712
			c0.622-0.812,0.77-1.204,0.803-1.345c-0.119-0.145-0.146-0.353-0.053-0.529c0.125-0.23,0.413-0.316,0.644-0.191
			c0.182,0.098,0.306,0.266,0.351,0.474c0.063,0.293,0.028,0.837-0.992,2.167c-0.264,0.344-0.393,0.704-0.344,0.96
			c0.019,0.1,0.063,0.171,0.13,0.212c0.196,0.119,0.294,0.091,0.331,0.081c0.411-0.118,0.949-1.173,1.239-1.74
			c0.159-0.312,0.283-0.631,0.392-0.913c0.276-0.716,0.563-1.458,1.357-1.479c0.56-0.016,1.024,0.211,1.267,0.625
			c0.38,0.646,0.178,1.611-0.618,2.953c-0.176,0.296-0.38,0.541-0.56,0.758c-0.444,0.534-0.49,0.649-0.354,0.882
			c0.043,0.074,0.21,0.143,0.473,0.121c0.638-0.055,1.459-0.585,1.855-1.646c0.229-0.611,0.296-1.027,0.347-1.332
			c0.058-0.36,0.131-0.809,0.628-0.915c0.346-0.075,0.677,0.035,0.884,0.293c0.322,0.402,0.3,1.058-0.063,1.845
			c-0.082,0.179-0.155,0.33-0.223,0.465c-0.257,0.521-0.274,0.585-0.204,0.772c0.048,0.127,0.166,0.211,0.316,0.226
			c0.142,0.012,0.647-0.016,1.23-0.966c0.73-1.192,0.499-2.819-0.517-3.625c-0.157-0.124-0.287-0.223-0.399-0.308
			c-0.335-0.253-0.558-0.421-0.824-0.779c-0.156-0.209-0.113-0.506,0.097-0.662c0.21-0.158,0.506-0.114,0.663,0.096
			c0.186,0.25,0.327,0.356,0.636,0.589c0.118,0.089,0.254,0.192,0.417,0.321c1.379,1.094,1.709,3.276,0.737,4.863
			c-0.846,1.379-1.771,1.449-2.129,1.414c-0.513-0.049-0.938-0.369-1.113-0.835c-0.03-0.081-0.053-0.158-0.068-0.232
			c-0.607,0.856-1.473,1.299-2.188,1.361C10.834,21.998,10.775,22,10.717,22z"/>
	</g>
</g>
<g>
	<g>
		<path fill="#EEEEEE" d="M8.899,284.624c1.126,0,2.15,0.6,2.839,1.62c-1.371,1.25-2.256,3.076-2.349,4.967
			c-0.074,1.519,0.304,3.146,1.09,4.782c-0.22-0.014-0.444-0.02-0.676-0.02c-0.755,0-1.546,0.064-2.547,0.145
			c-0.406,0.033-0.847,0.069-1.328,0.104c-0.159,0.012-0.316,0.018-0.467,0.018c-1.701,0-2.567-0.698-2.994-1.283
			c-0.488-0.667-0.646-1.531-0.415-2.258c0.516-1.613,2.092-1.854,2.986-1.854c0.112,0,0.182,0.005,0.184,0.005l0,0l3.379,0.328
			l-2.009-2.738c-0.047-0.065-1.149-1.601,0.122-2.873C7.328,284.95,8.084,284.624,8.899,284.624 M8.899,283.105
			c-1.162,0-2.324,0.45-3.261,1.389c-2.205,2.208-0.271,4.844-0.271,4.844s-0.123-0.012-0.329-0.012
			c-0.933,0-3.58,0.242-4.433,2.911c-0.736,2.306,0.829,5.521,4.855,5.521c0.187,0,0.378-0.007,0.576-0.021
			c1.62-0.117,2.774-0.245,3.767-0.245c1.512,0,2.643,0.299,4.463,1.395c-1.929-2.17-3.491-4.923-3.36-7.602
			c0.097-1.993,1.325-3.767,2.765-4.582C12.784,284.363,10.842,283.105,8.899,283.105L8.899,283.105z"/>
	</g>
	<g>
		<path fill="#EEEEEE" d="M21.672,297.086c-0.129,0-1.728,0.007-2.978,0.359c-1.45,0.408-2.493,1.636-2.493,1.636
			c0.748-0.412,1.281-0.518,1.739-0.518c0.495,0,0.902,0.125,1.397,0.125c0.208,0,0.432-0.022,0.685-0.085
			c1.237-0.307,1.658-1.517,1.658-1.517S21.677,297.086,21.672,297.086L21.672,297.086z"/>
	</g>
	<g>
		<path fill="#EEEEEE" d="M16.564,286.702v1.519l0,0c0.199,0,0.404,0.034,0.608,0.1c0.453,0.147,0.648,0.363,0.718,0.799
			c0.063,0.393-0.017,0.816-0.049,0.932l-1.075,3.327l3.183-1.519c0.002,0,0.249-0.093,0.547-0.093c0.312,0,0.781,0.08,1.263,0.773
			c0.154,0.221,0.332,0.573,0.1,1.083c-0.28,0.617-0.987,1.119-1.682,1.195c-1.675,0.185-3.208,0.462-4.5,1.624
			c-0.936-1.623-1.831-3.597-1.797-4.837c0.05-1.771,1.331-3.385,2.686-3.385V286.702 M16.564,286.702
			c-2.277,0.001-4.132,2.335-4.203,4.861c-0.081,2.914,3.195,7.516,3.195,7.516c1.181-2.2,2.65-2.516,4.786-2.75
			c2.137-0.234,4.081-2.619,2.663-4.655c-0.798-1.148-1.764-1.424-2.509-1.424c-0.696,0-1.201,0.24-1.201,0.24
			s0.845-2.805-1.655-3.614C17.274,286.757,16.914,286.702,16.564,286.702L16.564,286.702z"/>
	</g>
</g>
</svg>
